<?xml version="1.0" encoding="utf-8"?>
<!-- Generator: Adobe Illustrator 16.0.0, SVG Export Plug-In . SVG Version: 6.00 Build 0)  -->
<!DOCTYPE svg PUBLIC "-//W3C//DTD SVG 1.1//EN" "http://www.w3.org/Graphics/SVG/1.1/DTD/svg11.dtd">
<svg version="1.1" id="Capa_1" xmlns="http://www.w3.org/2000/svg" xmlns:xlink="http://www.w3.org/1999/xlink" x="0px" y="0px"
	 width="150px" height="150px" viewBox="0 0 150 150" enable-background="new 0 0 150 150" xml:space="preserve">
<g>
	<g>
		<g>
			<g>
				<path fill="#DDC190" d="M75.17,68.699c-3.153,0-5.716,2.565-5.716,5.717c0,3.151,2.563,5.713,5.716,5.713
					c3.149,0,5.713-2.563,5.713-5.713S78.319,68.699,75.17,68.699z M75.17,77.516c-1.712,0-3.104-1.392-3.104-3.1
					c0-1.71,1.391-3.104,3.104-3.104c1.708,0,3.1,1.394,3.1,3.104C78.271,76.124,76.878,77.516,75.17,77.516z"/>
				<path fill="#DDC190" d="M108.865,114.616h-4.579V98.839c0-0.508-0.293-0.971-0.755-1.185l-8.323-3.881v-5.211
					c0-0.495-0.278-0.948-0.723-1.167l-8.091-4.052V70.189c0-0.296-0.105-0.586-0.288-0.816l-9.631-11.949v-7.965H79.1
					c0.722,0,1.306-0.586,1.306-1.306c0-0.721-0.584-1.307-1.306-1.307h-2.624v-2.917c0-0.722-0.584-1.306-1.305-1.306
					c-0.721,0-1.308,0.584-1.308,1.306v2.917h-2.624c-0.721,0-1.302,0.586-1.302,1.307c0,0.72,0.581,1.306,1.302,1.306h2.624v7.965
					l-9.625,11.949c-0.191,0.229-0.291,0.521-0.291,0.816v13.155l-8.094,4.052c-0.443,0.219-0.722,0.672-0.722,1.167v5.211
					l-8.324,3.881c-0.459,0.214-0.752,0.678-0.752,1.185v15.78h-4.579c-0.724,0-1.307,0.581-1.307,1.306
					c0,0.721,0.583,1.307,1.307,1.307h67.39c0.721,0,1.303-0.586,1.303-1.307C110.171,115.2,109.586,114.616,108.865,114.616z
					 M101.672,114.616h-6.466V96.655l6.466,3.014V114.616z M55.132,114.616h-6.463V99.671l6.463-3.013V114.616z M72.067,114.616
					v-11.917c0-0.772,1.327-1.641,3.104-1.641c1.774,0,3.1,0.868,3.1,1.641v11.917H72.067z M92.593,114.616H80.884v-11.917
					c0-2.385-2.51-4.254-5.713-4.254c-3.206,0-5.716,1.869-5.716,4.254v11.917H57.745v-25.25l8.091-4.045
					c0.442-0.222,0.721-0.673,0.721-1.17V70.652l8.613-10.682l8.611,10.682v13.499c0,0.497,0.278,0.948,0.722,1.17l8.09,4.045
					V114.616z"/>
			</g>
		</g>
	</g>
</g>
</svg>
