<?xml version="1.0" encoding="utf-8"?>
<!-- Generator: Adobe Illustrator 16.0.0, SVG Export Plug-In . SVG Version: 6.00 Build 0)  -->
<!DOCTYPE svg PUBLIC "-//W3C//DTD SVG 1.1//EN" "http://www.w3.org/Graphics/SVG/1.1/DTD/svg11.dtd">
<svg version="1.1" id="Capa_1" xmlns="http://www.w3.org/2000/svg" xmlns:xlink="http://www.w3.org/1999/xlink" x="0px" y="0px"
	 width="150px" height="150px" viewBox="0 0 150 150" enable-background="new 0 0 150 150" xml:space="preserve">
<g>
	<g>
		<g>
			<path fill="#DDC190" d="M74.998,55.703c0.704,0,1.273-0.571,1.273-1.275v-6.721c0-0.702-0.569-1.27-1.273-1.27
				c-0.701,0-1.27,0.568-1.27,1.27v6.721C73.727,55.132,74.297,55.703,74.998,55.703z"/>
			<path fill="#DDC190" d="M68.751,56.657c0.248,0.25,0.574,0.374,0.897,0.374c0.326,0,0.654-0.123,0.899-0.374
				c0.497-0.497,0.497-1.304,0-1.797l-4.749-4.751c-0.498-0.498-1.305-0.498-1.799,0c-0.497,0.499-0.497,1.303,0,1.799
				L68.751,56.657z"/>
			<path fill="#DDC190" d="M80.35,57.03c0.325,0,0.651-0.123,0.899-0.374l4.75-4.75c0.496-0.497,0.496-1.301-0.002-1.799
				c-0.496-0.498-1.301-0.498-1.796,0L79.45,54.86c-0.497,0.494-0.497,1.302,0,1.797C79.7,56.907,80.023,57.03,80.35,57.03z"/>
			<path fill="#DDC190" d="M68.038,76.707c0.333,0,0.662-0.135,0.897-0.377c0.238-0.232,0.373-0.559,0.373-0.895
				c0-0.333-0.135-0.664-0.373-0.901c-0.236-0.236-0.563-0.368-0.897-0.368c-0.336,0-0.665,0.133-0.9,0.368
				c-0.239,0.239-0.374,0.566-0.374,0.901c0,0.337,0.135,0.663,0.374,0.895C67.374,76.57,67.702,76.707,68.038,76.707z"/>
			<path fill="#DDC190" d="M98.955,113.761l-6.969-3.271l-2.125-12.279c1.7-0.565,3.172-1.655,4.222-3.149
				c1.302-1.842,1.804-4.082,1.418-6.307L90.53,60.056c-0.12-0.694-0.779-1.155-1.472-1.036l-14.057,2.437l-14.059-2.437
				c-0.695-0.123-1.351,0.341-1.474,1.036l-4.972,28.699c-0.723,4.164,1.752,8.155,5.642,9.456l-2.128,12.277l-6.968,3.272
				c-0.502,0.236-0.792,0.771-0.72,1.319c0.076,0.557,0.497,0.992,1.043,1.088l13.5,2.336c0.073,0.015,0.145,0.021,0.218,0.021
				c0.01,0,0.021,0,0.03,0c0.689-0.019,1.247-0.581,1.247-1.275c0-0.378-0.17-0.723-0.436-0.952l-5.405-5.375l2.127-12.28
				c0.058,0,0.119,0.004,0.179,0.004c4.115,0,7.609-2.947,8.312-7.006l3.863-22.289l3.861,22.289
				c0.703,4.059,4.199,7.006,8.312,7.006l0,0c0.06,0,0.121-0.004,0.181-0.004l2.129,12.28l-5.463,5.427
				c-0.395,0.392-0.49,0.994-0.234,1.483c0.225,0.432,0.659,0.692,1.129,0.692c0.073,0,0.146-0.007,0.218-0.021l13.502-2.336
				c0.546-0.094,0.971-0.531,1.042-1.088C99.75,114.532,99.46,113.997,98.955,113.761z M61.758,61.744l11.629,2.012l-1.044,6.018
				l-11.625-2.015L61.758,61.744z M61.812,96.012c-3.206-0.554-5.363-3.613-4.809-6.818l3.279-18.923l11.629,2.009l-3.279,18.924
				c-0.492,2.838-2.931,4.896-5.805,4.896C62.487,96.1,62.149,96.069,61.812,96.012z M61.322,115.307l-5.542-0.957l3.107-1.458
				L61.322,115.307z M81.367,91.204l-3.276-18.925l11.625-2.01l3.278,18.922c0.269,1.552-0.082,3.119-0.992,4.407
				c-0.905,1.287-2.262,2.145-3.815,2.413c-0.336,0.058-0.676,0.088-1.016,0.088C84.3,96.1,81.857,94.042,81.367,91.204z
				 M88.239,61.744l1.043,6.017l-11.627,2.015l-1.04-6.018L88.239,61.744z M88.676,115.307l2.437-2.415l3.105,1.458L88.676,115.307z
				"/>
			<path fill="#DDC190" d="M81.544,73.292c-0.335,0-0.663,0.133-0.898,0.371c-0.236,0.236-0.375,0.563-0.375,0.9
				c0,0.336,0.139,0.661,0.375,0.899c0.235,0.237,0.566,0.372,0.898,0.372c0.337,0,0.662-0.135,0.9-0.372
				c0.236-0.239,0.374-0.563,0.374-0.899c0-0.337-0.138-0.666-0.374-0.9C82.208,73.425,81.881,73.292,81.544,73.292z"/>
			<path fill="#DDC190" d="M89.306,75.463c0.237-0.239,0.372-0.563,0.372-0.898s-0.135-0.666-0.372-0.9
				c-0.236-0.239-0.564-0.372-0.9-0.372c-0.335,0-0.665,0.134-0.899,0.372c-0.235,0.236-0.371,0.565-0.371,0.9
				s0.136,0.661,0.371,0.898c0.237,0.236,0.564,0.371,0.899,0.371C88.741,75.834,89.069,75.698,89.306,75.463z"/>
			<path fill="#DDC190" d="M85.594,77.975c-0.335,0-0.665,0.138-0.903,0.371c-0.234,0.236-0.369,0.566-0.369,0.903
				s0.135,0.662,0.369,0.9c0.241,0.235,0.568,0.37,0.903,0.37s0.66-0.135,0.896-0.37c0.24-0.238,0.375-0.563,0.375-0.9
				s-0.135-0.668-0.375-0.903C86.258,78.112,85.929,77.975,85.594,77.975z"/>
			<path fill="#DDC190" d="M61.593,77.552c-0.333,0-0.66,0.132-0.9,0.368c-0.234,0.238-0.373,0.565-0.373,0.904
				c0,0.334,0.139,0.661,0.373,0.898c0.241,0.236,0.566,0.374,0.9,0.374c0.333,0,0.665-0.138,0.899-0.374
				c0.239-0.238,0.374-0.564,0.374-0.898c0-0.339-0.135-0.668-0.374-0.904C62.258,77.684,61.929,77.552,61.593,77.552z"/>
			<path fill="#DDC190" d="M67.659,81.754c0-0.337-0.135-0.666-0.374-0.899c-0.235-0.237-0.563-0.372-0.899-0.372
				c-0.332,0-0.66,0.135-0.895,0.372c-0.242,0.235-0.376,0.563-0.376,0.899s0.135,0.662,0.376,0.896
				c0.236,0.24,0.563,0.375,0.895,0.375c0.336,0,0.665-0.135,0.899-0.375C67.523,82.416,67.659,82.091,67.659,81.754z"/>
		</g>
	</g>
</g>
</svg>
